<svg width="115" height="40" viewBox="0 0 115 40" fill="none" xmlns="http://www.w3.org/2000/svg">
<path fill-rule="evenodd" clip-rule="evenodd" d="M82.4042 10.0561C83.1794 10.0561 83.8079 10.6846 83.8079 11.4598V29.4978C83.809 30.2238 83.2563 30.8309 82.5334 30.8977C81.8104 30.9646 81.1558 30.4691 81.0238 29.7552C80.0731 30.713 78.7701 31.2376 77.4209 31.2057C73.7244 31.2057 70.7298 27.8601 70.7298 23.7425C70.7298 19.6249 73.7244 16.2793 77.4209 16.2793C78.7601 16.2394 80.056 16.7561 81.0004 17.7065V11.4598C81.0004 10.6846 81.6289 10.0561 82.4042 10.0561ZM67.8521 24.6783C69.0687 24.6783 69.7706 23.7659 69.7238 22.8769C69.7004 22.409 69.6536 22.1048 69.6068 21.8709C68.8581 18.6423 66.2378 16.2559 63.1262 16.2559C59.4297 16.2559 56.4351 19.6015 56.4351 23.7191C56.4351 27.8367 59.4297 31.1823 63.1262 31.1823C65.4424 31.1823 67.1035 30.3401 68.2966 29.0065C68.8815 28.3514 68.7646 27.3454 68.0627 26.8541C67.4778 26.4564 66.7525 26.5968 66.2144 27.0413L66.1716 27.0784C65.646 27.5333 64.674 28.3748 63.1262 28.3748C61.2546 28.3748 59.6637 26.7605 59.3128 24.6315H67.8521V24.6783ZM63.1028 19.0868C64.7873 19.0868 66.2378 20.3969 66.7759 22.1984H59.4297C59.9678 20.3736 61.4184 19.0868 63.1028 19.0868ZM55.4057 16.3495C56.0797 16.4634 56.5736 17.0463 56.5755 17.7299C56.5755 18.4551 56.014 19.0634 55.3121 19.1102H55.0314C52.3175 18.8061 50.3523 20.9584 50.3523 23.5787V29.4978C50.3531 29.8869 50.1925 30.2589 49.9086 30.525C49.6247 30.7911 49.2432 30.9275 48.8549 30.9016C48.1063 30.8548 47.5448 30.1997 47.5448 29.451V17.9872C47.5448 17.2119 48.1733 16.5835 48.9485 16.5835C49.6504 16.5835 50.3523 17.1216 50.3523 17.9872V18.1744C51.5936 16.7125 53.5168 16.0181 55.4057 16.3495ZM104.677 19.2272C104.677 18.4551 104.045 17.8234 103.273 17.8234C102.501 17.8234 101.869 18.4551 101.869 19.2272V29.4978C101.869 30.2699 102.501 30.9016 103.273 30.9016C104.045 30.9016 104.677 30.2699 104.677 29.4978V19.2272ZM77.4443 28.4216C75.2919 28.4216 73.5606 26.3394 73.5606 23.7425C73.5606 21.169 75.2919 19.0634 77.4443 19.0634C79.5967 19.0634 81.328 21.1456 81.328 23.7425C81.328 26.3394 79.5733 28.4216 77.4443 28.4216ZM97.0498 10.0561C97.825 10.0561 98.4535 10.6846 98.4535 11.4598V29.4978C98.4546 30.2238 97.9019 30.8309 97.179 30.8977C96.4561 30.9646 95.8014 30.4691 95.6694 29.7552C94.7187 30.713 93.4158 31.2376 92.0665 31.2057C88.37 31.2057 85.3754 27.8601 85.3754 23.7425C85.3754 19.6249 88.37 16.2793 92.0665 16.2793C93.4057 16.2394 94.7017 16.7561 95.6461 17.7065V11.4598C95.6461 10.6846 96.2745 10.0561 97.0498 10.0561ZM92.0665 28.4216C89.9141 28.4216 88.1829 26.3394 88.1829 23.7425C88.1829 21.169 89.9141 19.0634 92.0665 19.0634C94.2189 19.0634 95.9502 21.1456 95.9502 23.7425C95.9502 26.3394 94.2189 28.4216 92.0665 28.4216ZM111.789 19.0868V29.5212C111.789 30.2933 111.181 30.9016 110.362 30.9483C109.587 30.9483 108.958 30.3199 108.958 29.5446V19.1102H107.765C107.421 19.1044 107.095 18.9589 106.861 18.7073C106.627 18.4557 106.506 18.1197 106.525 17.7766C106.586 17.112 107.144 16.6041 107.812 16.6069H108.982V14.5715C108.981 14.1824 109.141 13.8104 109.425 13.5443C109.709 13.2781 110.091 13.1418 110.479 13.1677C111.227 13.2145 111.789 13.8696 111.789 14.6182V16.5835H113.076C113.419 16.5893 113.746 16.7348 113.98 16.9864C114.213 17.238 114.335 17.574 114.316 17.917C114.269 18.5955 113.684 19.0868 113.029 19.0868H111.789Z" fill="#222222"/>
<circle cx="20.0784" cy="20.2098" r="19.6055" fill="#FF4500"/>
<path fill-rule="evenodd" clip-rule="evenodd" d="M31.419 17.5717C32.4763 18.0212 33.1611 19.0609 33.1565 20.2098C33.1565 21.3796 32.4547 22.3856 31.472 22.8301C31.5187 23.1163 31.5422 23.4058 31.5422 23.6957C31.5422 28.1175 26.4186 31.6736 20.1018 31.6736C13.785 31.6736 8.66138 28.0941 8.66138 23.6957C8.66138 23.3916 8.68478 23.1108 8.73157 22.8301C7.69661 22.3607 7.0387 21.3221 7.05656 20.1858C7.07441 19.0495 7.76463 18.0321 8.81382 17.5955C9.86301 17.1589 11.0713 17.3862 11.89 18.1744C13.8786 16.7472 16.6159 15.8348 19.6573 15.7412L21.1078 8.90973C21.1271 8.77515 21.2039 8.6556 21.3184 8.5822C21.412 8.51201 21.5523 8.48861 21.6927 8.51201L26.442 9.51802C26.8981 8.59871 27.9672 8.1627 28.9361 8.50088C29.905 8.83906 30.4706 9.84564 30.2556 10.8491C30.0406 11.8525 29.1122 12.539 28.0898 12.4504C27.0674 12.3619 26.2708 11.5261 26.2314 10.5006L21.9735 9.5882L20.6633 15.7178C23.6579 15.8348 26.3484 16.7472 28.3136 18.151C29.1378 17.3505 30.3616 17.1222 31.419 17.5717ZM14.5688 20.4825C13.939 20.8461 13.5511 21.518 13.5511 22.2452C13.5511 23.3693 14.4623 24.2806 15.5865 24.2806C16.7106 24.2806 17.6219 23.3693 17.6219 22.2452C17.6219 21.518 17.2339 20.8461 16.6042 20.4825C15.9744 20.1189 15.1985 20.1189 14.5688 20.4825ZM24.9447 27.6496C23.541 29.0533 20.8739 29.1469 20.1018 29.1469C19.3064 29.1469 16.6393 29.0299 15.2589 27.6496C15.0484 27.439 15.0484 27.1115 15.2589 26.9009C15.4695 26.6904 15.797 26.6904 16.0076 26.9009C16.8966 27.7899 18.7683 28.0941 20.1018 28.0941C21.4354 28.0941 23.3304 27.7899 24.196 26.9009C24.4066 26.6904 24.7341 26.6904 24.9447 26.9009C25.1319 27.1115 25.1319 27.439 24.9447 27.6496ZM22.5349 22.2686C22.5349 23.3927 23.4462 24.304 24.5704 24.304C25.6945 24.304 26.6058 23.3927 26.6058 22.2686C26.6058 21.1445 25.6945 20.2332 24.5704 20.2332C23.4462 20.2332 22.5349 21.1445 22.5349 22.2686Z" fill="white"/>
<circle cx="103.273" cy="14.1035" r="2.47993" fill="#FF4500"/>
</svg>
